<?xml version="1.0" encoding="utf-8"?>
<!-- Generator: Adobe Illustrator 22.0.0, SVG Export Plug-In . SVG Version: 6.00 Build 0)  -->
<svg version="1.1" id="Layer_1" xmlns="http://www.w3.org/2000/svg" xmlns:xlink="http://www.w3.org/1999/xlink" x="0px" y="0px"
	 viewBox="0 0 500 500" style="enable-background:new 0 0 500 500;" xml:space="preserve">
<style type="text/css">
	.st0{fill:#C9C9C9;}
	.st1{fill:#A0A0A0;}
	.st2{fill:#71CCFF;}
	.st3{fill:#231F20;}
	.st4{fill:#F9F9F9;}
	.st5{fill:#7A7979;}
	.st6{fill:#4C4C4C;}
	.st7{fill:#F9B630;}
	.st8{fill:#D88A0E;}
	.st9{fill:#FFEDCC;}
	.st10{fill:#C0E7F9;}
	.st11{fill:#08B26C;}
	.st12{fill:#15A9EA;}
	.st13{fill:none;stroke:#C9C9C9;stroke-width:10;stroke-linecap:round;stroke-linejoin:round;stroke-miterlimit:10;}
	.st14{fill:none;stroke:#231F20;stroke-width:10;stroke-linecap:round;stroke-linejoin:round;stroke-miterlimit:10;}
	.st15{fill:#FFFFFF;}
	.st16{fill:#35EF9F;}
	.st17{fill:#22A6E0;}
	.st18{fill:#FC3A6D;}
	.st19{fill:#FFA9C8;}
	.st20{fill:#038E52;}
	.st21{fill:#E2074B;}
</style>
<g>
	<g>
		<path class="st2" d="M289.7,141.3v39.1c0,2.8,2.2,5,5,5H312c2.8,0,5-2.2,5-5v-39.1c0-2.8-2.2-5-5-5h-17.3
			C291.9,136.3,289.7,138.5,289.7,141.3z"/>
	</g>
</g>
<g>
	<g>
		<path class="st3" d="M312,190.3h-17.3c-5.5,0-10-4.5-10-10v-39.1c0-5.5,4.5-10,10-10H312c5.5,0,10,4.5,10,10v39.1
			C322,185.8,317.5,190.3,312,190.3z M294.7,141.3v39.1H312v-39.1H294.7z"/>
	</g>
</g>
<g>
	<g>
		<rect x="5" y="310.7" class="st5" width="490" height="184.3"/>
	</g>
</g>
<g>
	<g>
		<path class="st0" d="M146.1,337.7H45.7c-2.8,0-5-2.2-5-5s2.2-5,5-5h100.4c2.8,0,5,2.2,5,5S148.8,337.7,146.1,337.7z"/>
	</g>
</g>
<g>
	<g>
		<rect x="183" y="203.5" class="st0" width="134" height="107.2"/>
	</g>
</g>
<g>
	<g>
		<path class="st3" d="M317,315.7H183c-2.8,0-5-2.2-5-5V203.5c0-2.8,2.2-5,5-5h134c2.8,0,5,2.2,5,5v107.2
			C322,313.4,319.7,315.7,317,315.7z M188,305.7h124v-97.2H188V305.7z"/>
	</g>
</g>
<g>
	<g>
		<path class="st5" d="M270,310.7h-40V273c0-5,4-9,9-9h22c5,0,9,4,9,9V310.7z"/>
	</g>
</g>
<g>
	<g>
		<path class="st3" d="M270,315.7h-40c-2.8,0-5-2.2-5-5V273c0-7.7,6.3-14,14-14h22c7.7,0,14,6.3,14,14v37.7
			C275,313.4,272.8,315.7,270,315.7z M235,305.7h30V273c0-2.2-1.8-4-4-4h-22c-2.2,0-4,1.8-4,4V305.7z"/>
	</g>
</g>
<g>
	<g>
		<path class="st3" d="M495,315.7H5c-2.8,0-5-2.2-5-5s2.2-5,5-5h490c2.8,0,5,2.2,5,5S497.8,315.7,495,315.7z"/>
	</g>
</g>
<g>
	<g>
		<path class="st3" d="M495,500H5c-2.8,0-5-2.2-5-5s2.2-5,5-5h490c2.8,0,5,2.2,5,5S497.8,500,495,500z"/>
	</g>
</g>
<g>
	<g>
		<path class="st3" d="M495,500H5c-2.8,0-5-2.2-5-5s2.2-5,5-5h490c2.8,0,5,2.2,5,5S497.8,500,495,500z"/>
	</g>
</g>
<g>
	<g>
		<path class="st11" d="M44.3,243.6c0.5-1.4,0.7-2.9,0.7-4.5c0-8.1-6.6-14.7-14.6-14.7c-8.1,0-14.6,6.6-14.6,14.7
			c0,1.6,0.2,3.1,0.7,4.5C9.9,245.1,5,251,5,257.9c0,8.1,6.6,14.7,14.6,14.7c4.2,0,8.1-1.8,10.7-4.7c2.7,2.9,6.5,4.7,10.7,4.7
			c8.1,0,14.6-6.6,14.6-14.7C55.8,251,50.9,245.1,44.3,243.6z"/>
	</g>
</g>
<g>
	<g>
		<path class="st3" d="M41.1,277.6c-3.8,0-7.6-1.1-10.7-3.2c-3.2,2.1-6.9,3.2-10.7,3.2C8.8,277.6,0,268.8,0,258
			c0-7.5,4.3-14.2,10.8-17.5c0-0.4,0-0.8,0-1.3c0-10.8,8.8-19.7,19.6-19.7S50,228.3,50,239.1c0,0.4,0,0.8,0,1.3
			c6.5,3.3,10.8,10.1,10.8,17.5C60.8,268.8,51.9,277.6,41.1,277.6z M30.4,262.9c1.4,0,2.7,0.6,3.7,1.6c1.8,2,4.4,3.1,7.1,3.1
			c5.3,0,9.6-4.3,9.6-9.7c0-4.5-3.2-8.4-7.5-9.4c-1.4-0.3-2.6-1.2-3.3-2.4c-0.7-1.2-0.9-2.7-0.4-4c0.3-1,0.5-2,0.5-3
			c0-5.3-4.3-9.7-9.6-9.7s-9.6,4.3-9.6,9.7c0,1,0.2,2,0.5,3c0.4,1.3,0.3,2.8-0.4,4c-0.7,1.2-1.9,2.1-3.3,2.4c-4.4,1-7.5,4.9-7.5,9.4
			c0,5.3,4.3,9.7,9.6,9.7c2.7,0,5.2-1.1,7.1-3.1C27.7,263.5,29,262.9,30.4,262.9z"/>
	</g>
</g>
<g>
	<g>
		<path class="st3" d="M30.4,315.7c-2.8,0-5-2.2-5-5v-42.8c0-2.8,2.2-5,5-5s5,2.2,5,5v42.8C35.4,313.4,33.1,315.7,30.4,315.7z"/>
	</g>
</g>
<g>
	<g>
		<path class="st11" d="M95.1,243.6c0.5-1.4,0.7-2.9,0.7-4.5c0-8.1-6.6-14.7-14.6-14.7c-8.1,0-14.6,6.6-14.6,14.7
			c0,1.6,0.2,3.1,0.7,4.5c-6.5,1.5-11.4,7.3-11.4,14.3c0,8.1,6.6,14.7,14.6,14.7c4.2,0,8.1-1.8,10.7-4.7c2.7,2.9,6.5,4.7,10.7,4.7
			c8.1,0,14.6-6.6,14.6-14.7C106.5,251,101.6,245.1,95.1,243.6z"/>
	</g>
</g>
<g>
	<g>
		<path class="st3" d="M91.9,277.6c-3.8,0-7.6-1.1-10.7-3.2c-3.2,2.1-6.9,3.2-10.7,3.2c-10.8,0-19.6-8.8-19.6-19.7
			c0-7.5,4.3-14.2,10.8-17.5c0-0.4,0-0.8,0-1.3c0-10.8,8.8-19.7,19.6-19.7c10.8,0,19.6,8.8,19.6,19.7c0,0.4,0,0.8,0,1.3
			c6.5,3.3,10.8,10.1,10.8,17.5C111.5,268.8,102.7,277.6,91.9,277.6z M81.1,262.9L81.1,262.9c1.4,0,2.7,0.6,3.7,1.6
			c1.8,2,4.4,3.1,7.1,3.1c5.3,0,9.6-4.3,9.6-9.7c0-4.5-3.2-8.4-7.5-9.4c-1.4-0.3-2.6-1.2-3.3-2.4c-0.7-1.2-0.9-2.7-0.4-4
			c0.3-1,0.5-2,0.5-3c0-5.3-4.3-9.7-9.6-9.7c-5.3,0-9.6,4.3-9.6,9.7c0,1,0.2,2,0.5,3c0.4,1.3,0.3,2.8-0.4,4
			c-0.7,1.2-1.9,2.1-3.3,2.4c-4.4,1-7.5,4.9-7.5,9.4c0,5.3,4.3,9.7,9.6,9.7c2.7,0,5.2-1.1,7.1-3.1C78.4,263.5,79.7,262.9,81.1,262.9
			z"/>
	</g>
</g>
<g>
	<g>
		<path class="st3" d="M81.1,315.7c-2.8,0-5-2.2-5-5v-42.8c0-2.8,2.2-5,5-5s5,2.2,5,5v42.8C86.1,313.4,83.9,315.7,81.1,315.7z"/>
	</g>
</g>
<g>
	<g>
		<path class="st11" d="M432.8,243.6c0.5-1.4,0.7-2.9,0.7-4.5c0-8.1-6.6-14.7-14.6-14.7c-8.1,0-14.6,6.6-14.6,14.7
			c0,1.6,0.2,3.1,0.7,4.5c-6.5,1.5-11.4,7.3-11.4,14.3c0,8.1,6.6,14.7,14.6,14.7c4.2,0,8.1-1.8,10.7-4.7c2.7,2.9,6.5,4.7,10.7,4.7
			c8.1,0,14.6-6.6,14.6-14.7C444.3,251,439.4,245.1,432.8,243.6z"/>
	</g>
</g>
<g>
	<g>
		<path class="st3" d="M429.6,277.6c-3.8,0-7.6-1.1-10.7-3.2c-3.2,2.1-6.9,3.2-10.7,3.2c-10.8,0-19.6-8.8-19.6-19.7
			c0-7.5,4.3-14.2,10.8-17.5c0-0.4,0-0.8,0-1.3c0-10.8,8.8-19.7,19.6-19.7c10.8,0,19.6,8.8,19.6,19.7c0,0.4,0,0.8,0,1.3
			c6.5,3.3,10.8,10.1,10.8,17.5C449.3,268.8,440.4,277.6,429.6,277.6z M418.9,262.9c1.4,0,2.7,0.6,3.7,1.6c1.8,2,4.4,3.1,7.1,3.1
			c5.3,0,9.6-4.3,9.6-9.7c0-4.5-3.2-8.4-7.5-9.4c-1.4-0.3-2.6-1.2-3.3-2.4c-0.7-1.2-0.9-2.7-0.4-4c0.3-1,0.5-2,0.5-3
			c0-5.3-4.3-9.7-9.6-9.7c-5.3,0-9.6,4.3-9.6,9.7c0,1,0.2,2,0.5,3c0.4,1.3,0.3,2.8-0.4,4c-0.7,1.2-1.9,2.1-3.3,2.4
			c-4.4,1-7.5,4.9-7.5,9.4c0,5.3,4.3,9.7,9.6,9.7c2.7,0,5.2-1.1,7.1-3.1C416.2,263.5,417.5,262.9,418.9,262.9z"/>
	</g>
</g>
<g>
	<g>
		<path class="st3" d="M418.9,315.7c-2.8,0-5-2.2-5-5v-42.8c0-2.8,2.2-5,5-5s5,2.2,5,5v42.8C423.9,313.4,421.6,315.7,418.9,315.7z"
			/>
	</g>
</g>
<g>
	<g>
		<path class="st11" d="M483.6,243.6c0.5-1.4,0.7-2.9,0.7-4.5c0-8.1-6.6-14.7-14.6-14.7s-14.6,6.6-14.6,14.7c0,1.6,0.2,3.1,0.7,4.5
			c-6.5,1.5-11.4,7.3-11.4,14.3c0,8.1,6.6,14.7,14.6,14.7c4.2,0,8.1-1.8,10.7-4.7c2.7,2.9,6.5,4.7,10.7,4.7
			c8.1,0,14.6-6.6,14.6-14.7C495,251,490.1,245.1,483.6,243.6z"/>
	</g>
</g>
<g>
	<g>
		<path class="st3" d="M480.4,277.6c-3.8,0-7.6-1.1-10.7-3.2c-3.2,2.1-6.9,3.2-10.7,3.2c-10.8,0-19.6-8.8-19.6-19.7
			c0-7.5,4.3-14.2,10.8-17.5c0-0.4,0-0.8,0-1.3c0-10.8,8.8-19.7,19.6-19.7c10.8,0,19.6,8.8,19.6,19.7c0,0.4,0,0.8,0,1.3
			c6.5,3.3,10.8,10.1,10.8,17.5C500,268.8,491.2,277.6,480.4,277.6z M469.6,262.9L469.6,262.9c1.4,0,2.7,0.6,3.7,1.6
			c1.8,2,4.4,3.1,7.1,3.1c5.3,0,9.6-4.3,9.6-9.7c0-4.5-3.2-8.4-7.5-9.4c-1.4-0.3-2.6-1.2-3.3-2.4c-0.7-1.2-0.9-2.7-0.4-4
			c0.3-1,0.5-2,0.5-3c0-5.3-4.3-9.7-9.6-9.7c-5.3,0-9.6,4.3-9.6,9.7c0,1,0.2,2,0.5,3c0.4,1.3,0.3,2.8-0.4,4
			c-0.7,1.2-1.9,2.1-3.3,2.4c-4.4,1-7.5,4.9-7.5,9.4c0,5.3,4.3,9.7,9.6,9.7c2.7,0,5.2-1.1,7.1-3.1
			C466.9,263.5,468.2,262.9,469.6,262.9z"/>
	</g>
</g>
<g>
	<g>
		<path class="st3" d="M469.6,315.7c-2.8,0-5-2.2-5-5v-42.8c0-2.8,2.2-5,5-5s5,2.2,5,5v42.8C474.6,313.4,472.4,315.7,469.6,315.7z"
			/>
	</g>
</g>
<g>
	<g>
		<path class="st7" d="M255.1,5.1C253.4,5,251.7,5,250,5s-3.4,0-5.1,0.1c-37.3,1-70.1,13.2-96.6,32.7
			c-71.4,52.6-97,158.4-39.8,240.8l116.7,167.9c12,17.3,37.7,17.3,49.7,0l116.7-167.9C470,165.5,392.7,8.6,255.1,5.1z M250,303.5
			c-69.9,0-126.5-56.6-126.5-126.5c0-69.9,56.6-126.5,126.5-126.5c69.9,0,126.5,56.6,126.5,126.5C376.5,246.9,319.9,303.5,250,303.5
			z"/>
	</g>
</g>
<g>
	<g>
		<path class="st3" d="M250,464.5c-11.5,0-22.4-5.7-29-15.1L104.4,281.4C76,240.6,65.9,191.6,75.7,143.3c0.6-2.7,3.2-4.5,5.9-3.9
			c2.7,0.6,4.5,3.2,3.9,5.9c-9.3,45.6,0.3,91.9,27.1,130.4l116.7,167.9c4.8,6.9,12.3,10.8,20.7,10.8s16-4,20.7-10.8l116.7-167.9
			c36.2-52.1,40.6-117.2,11.8-174C371,45.9,317,11.7,255,10.1c-3.3-0.1-6.7-0.1-10,0c-36,0.9-69.7,12.9-97.5,34.5
			c-2.2,1.7-5.3,1.3-7-0.9c-1.7-2.2-1.3-5.3,0.9-7c29.4-23,65.2-35.6,103.4-36.6c3.4-0.1,7-0.1,10.5,0c65.8,1.7,123,38,152.9,97.1
			c14.3,28.3,21.1,59.7,19.5,91c-1.6,33.2-12.7,65.4-32.1,93.3L279,449.4C272.4,458.8,261.5,464.5,250,464.5z"/>
	</g>
</g>
<g>
	<g>
		<path class="st3" d="M89.2,120.3c-0.6,0-1.2-0.1-1.8-0.3c-2.6-1-3.8-3.9-2.8-6.5c6.9-17.6,16.3-33.9,28.1-48.5
			c1.7-2.1,4.9-2.5,7-0.7c2.1,1.7,2.5,4.9,0.7,7c-11.2,13.8-20.1,29.2-26.6,45.9C93.1,119.1,91.2,120.3,89.2,120.3z"/>
	</g>
</g>
<g>
	<g>
		<path class="st3" d="M129.1,59.2c-1.3,0-2.6-0.5-3.5-1.5c-1.9-2-1.9-5.1,0-7.1c0.4-0.4,0.8-0.8,1.2-1.2c2-1.9,5.1-1.9,7.1,0.1
			s1.9,5.1-0.1,7.1c-0.4,0.4-0.8,0.8-1.2,1.2C131.7,58.7,130.4,59.2,129.1,59.2z"/>
	</g>
</g>
<g>
	<g>
		<path class="st9" d="M220.9,32.9c-2.4,0-4.5-1.7-4.9-4.1c-0.5-2.7,1.3-5.3,4-5.8c0.8-0.1,1.6-0.3,2.4-0.4c2.7-0.5,5.3,1.4,5.8,4.1
			c0.5,2.7-1.4,5.3-4.1,5.8c-0.7,0.1-1.5,0.3-2.2,0.4C221.5,32.8,221.2,32.9,220.9,32.9z"/>
	</g>
</g>
<g>
	<g>
		<path class="st9" d="M125.1,272c-1.6,0-3.1-0.7-4.1-2.1c-17.2-24.8-27.1-53.4-28.5-82.7c-1.4-27.7,4.6-55.7,17.4-80.8
			c19.2-37.8,51.3-65.7,90.5-78.4c2.6-0.9,5.4,0.6,6.3,3.2s-0.6,5.4-3.2,6.3c-36.6,11.9-66.7,38-84.6,73.4
			c-12,23.6-17.6,49.8-16.3,75.8c1.4,27.5,10.6,54.3,26.7,77.5c1.6,2.3,1,5.4-1.3,7C127.1,271.7,126.1,272,125.1,272z"/>
	</g>
</g>
<g>
	<g>
		<path class="st3" d="M312.9,464.5H187.1c-2.8,0-5-2.2-5-5s2.2-5,5-5h125.8c2.8,0,5,2.2,5,5S315.6,464.5,312.9,464.5z"/>
	</g>
</g>
<g>
	<g>
		<path class="st3" d="M162.2,464.5h-9.2c-2.8,0-5-2.2-5-5s2.2-5,5-5h9.2c2.8,0,5,2.2,5,5S164.9,464.5,162.2,464.5z"/>
	</g>
</g>
<g>
	<g>
		<path class="st3" d="M347.1,464.5h-9.2c-2.8,0-5-2.2-5-5s2.2-5,5-5h9.2c2.8,0,5,2.2,5,5S349.8,464.5,347.1,464.5z"/>
	</g>
</g>
<g>
	<g>
		<path class="st0" d="M17.7,337.7H5c-2.8,0-5-2.2-5-5s2.2-5,5-5h12.7c2.8,0,5,2.2,5,5S20.4,337.7,17.7,337.7z"/>
	</g>
</g>
<g>
	<g>
		<path class="st0" d="M457.7,337.7h-76c-2.8,0-5-2.2-5-5s2.2-5,5-5h76c2.8,0,5,2.2,5,5S460.4,337.7,457.7,337.7z"/>
	</g>
</g>
<g>
	<g>
		<path class="st2" d="M333.1,194.9c3.6,2.8,1.7,8.6-2.9,8.6H250h0h-80.2c-4.6,0-6.6-5.8-2.9-8.6l71.5-54.7c6.8-5.2,16.3-5.2,23.1,0
			L333.1,194.9z"/>
	</g>
</g>
<g>
	<g>
		<path class="st3" d="M330.2,208.5H169.8c-4.3,0-7.9-2.6-9.3-6.7s-0.1-8.3,3.3-10.9l71.5-54.7c8.6-6.6,20.6-6.6,29.2,0l71.5,54.7
			c3.4,2.6,4.7,6.9,3.3,10.9C338.1,205.9,334.4,208.5,330.2,208.5z M330.1,198.9L330.1,198.9L330.1,198.9z M170.4,198.5l159.1,0
			l-71.1-54.4c-5-3.8-12-3.8-17,0L170.4,198.5z"/>
	</g>
</g>
<g>
	<g>
		<path class="st10" d="M214.7,188.5c-1.5,0-3-0.7-4-2c-1.7-2.2-1.3-5.3,0.9-7l21.5-16.4c2.2-1.7,5.3-1.3,7,0.9
			c1.7,2.2,1.3,5.3-0.9,7l-21.5,16.4C216.9,188.2,215.8,188.5,214.7,188.5z M248.8,162.5c-1.5,0-3-0.7-4-2c-1.7-2.2-1.3-5.3,0.9-7
			l1.2-0.9c2.2-1.7,5.3-1.3,7,0.9c1.7,2.2,1.3,5.3-0.9,7l-1.2,0.9C250.9,162.1,249.8,162.5,248.8,162.5z"/>
	</g>
</g>
<g>
	<g>
		<path class="st2" d="M289,234.8h-19.5c-2.7,0-4.9,2.2-4.9,4.9v19.5c0,2.7,2.2,4.9,4.9,4.9H289c2.7,0,4.9-2.2,4.9-4.9v-19.5
			C293.8,236.9,291.7,234.8,289,234.8z"/>
	</g>
</g>
<g>
	<g>
		<path class="st3" d="M289,269h-19.5c-5.4,0-9.9-4.4-9.9-9.9v-19.5c0-5.4,4.4-9.9,9.9-9.9H289c5.4,0,9.9,4.4,9.9,9.9v19.5
			C298.8,264.6,294.4,269,289,269z M269.6,259h19.2v-19.2h-19.2V259z M289,239.8L289,239.8L289,239.8z"/>
	</g>
</g>
<g>
	<g>
		<path class="st4" d="M206.2,300.7c-2.8,0-5-2.2-5-5v-75.5c0-2.8,2.2-5,5-5s5,2.2,5,5v75.5C211.2,298.5,208.9,300.7,206.2,300.7z"
			/>
	</g>
</g>
<g>
	<g>
		<path class="st3" d="M250,308.5c-72.5,0-131.5-59-131.5-131.5c0-72.5,59-131.5,131.5-131.5s131.5,59,131.5,131.5
			C381.5,249.5,322.5,308.5,250,308.5z M250,55.5c-67,0-121.5,54.5-121.5,121.5S183,298.5,250,298.5S371.5,244,371.5,177
			S317,55.5,250,55.5z"/>
	</g>
</g>
<g>
	<g>
		<path class="st2" d="M230.5,234.8H211c-2.7,0-4.9,2.2-4.9,4.9v19.5c0,2.7,2.2,4.9,4.9,4.9h19.5c2.7,0,4.9-2.2,4.9-4.9v-19.5
			C235.4,236.9,233.2,234.8,230.5,234.8z"/>
	</g>
</g>
<g>
	<g>
		<path class="st3" d="M230.5,269H211c-5.4,0-9.9-4.4-9.9-9.9v-19.5c0-5.4,4.4-9.9,9.9-9.9h19.5c5.4,0,9.9,4.4,9.9,9.9v19.5
			C240.4,264.6,236,269,230.5,269z M211.2,259h19.2v-19.2h-19.2V259z M230.5,239.8L230.5,239.8L230.5,239.8z"/>
	</g>
</g>
</svg>
